<?xml version="1.0" encoding="UTF-8" standalone="no"?>
<!DOCTYPE svg PUBLIC "-//W3C//DTD SVG 1.1//EN"
 "http://www.w3.org/Graphics/SVG/1.1/DTD/svg11.dtd">
<!-- Generated by graphviz version 2.38.0 (20140413.2041)
 -->
<!-- Title: %3 Pages: 1 -->
<svg width="519pt" height="479pt"
 viewBox="0.00 0.00 518.94 479.00" xmlns="http://www.w3.org/2000/svg" xmlns:xlink="http://www.w3.org/1999/xlink">
<g id="graph0" class="graph" transform="scale(1 1) rotate(0) translate(4 475)">
<title>%3</title>
<polygon fill="#333333" stroke="none" points="-4,4 -4,-475 514.941,-475 514.941,4 -4,4"/>
<text text-anchor="middle" x="255.471" y="-9.2" font-family="Times,serif" font-size="16.00" fill="white">Network Map</text>
<!-- R6 -->
<g id="node1" class="node"><title>R6</title>
<polygon fill="#006699" stroke="#006699" points="94.4411,-347 17.4411,-347 17.4411,-274 94.4411,-274 94.4411,-347"/>
<text text-anchor="middle" x="55.9411" y="-306.8" font-family="Helvetica,sans-Serif" font-size="14.00" fill="white">R6</text>
</g>
<!-- R5 -->
<g id="node2" class="node"><title>R5</title>
<polygon fill="#006699" stroke="#006699" points="339.441,-223 262.441,-223 262.441,-150 339.441,-150 339.441,-223"/>
<text text-anchor="middle" x="300.941" y="-182.8" font-family="Helvetica,sans-Serif" font-size="14.00" fill="white">R5</text>
</g>
<!-- SW1 -->
<g id="node3" class="node"><title>SW1</title>
<polygon fill="#006699" stroke="#006699" points="162.941,-223 70.9411,-223 70.9411,-150 162.941,-150 162.941,-223"/>
<text text-anchor="middle" x="116.941" y="-182.8" font-family="Helvetica,sans-Serif" font-size="14.00" fill="white">SW1</text>
</g>
<!-- SW1&#45;&#45;R6 -->
<g id="edge6" class="edge"><title>SW1&#45;&#45;R6</title>
<path fill="none" stroke="green" stroke-dasharray="5,2" d="M70.8224,-220.793C65.2249,-226.865 60.3053,-233.638 56.9411,-241 52.3442,-251.061 50.9552,-262.852 51.0501,-273.788"/>
<text text-anchor="middle" x="106.941" y="-244.8" font-family="Courier,monospace" font-size="14.00" fill="white"> &#160;&#160;&#160;&#160;&#160;&#160;&#160;&#160;&#160;&#160;&#160;</text>
<text text-anchor="middle" x="26.0501" y="-262.588" font-family="Courier,monospace" font-size="14.00" fill="white">Eth0/1</text>
<text text-anchor="middle" x="45.8224" y="-209.593" font-family="Courier,monospace" font-size="14.00" fill="white">Eth0/5</text>
</g>
<!-- R2 -->
<g id="node4" class="node"><title>R2</title>
<polygon fill="#006699" stroke="#006699" points="217.441,-347 140.441,-347 140.441,-274 217.441,-274 217.441,-347"/>
<text text-anchor="middle" x="178.941" y="-306.8" font-family="Helvetica,sans-Serif" font-size="14.00" fill="white">R2</text>
</g>
<!-- SW1&#45;&#45;R2 -->
<g id="edge5" class="edge"><title>SW1&#45;&#45;R2</title>
<path fill="none" stroke="green" stroke-dasharray="5,2" d="M146.176,-223.279C150.117,-229.007 153.857,-235.023 156.941,-241 162.211,-251.212 166.534,-262.931 169.911,-273.755"/>
<text text-anchor="middle" x="213.941" y="-244.8" font-family="Courier,monospace" font-size="14.00" fill="white"> &#160;&#160;&#160;&#160;&#160;&#160;&#160;&#160;&#160;&#160;&#160;</text>
<text text-anchor="middle" x="144.911" y="-262.555" font-family="Courier,monospace" font-size="14.00" fill="white">Eth0/0</text>
<text text-anchor="middle" x="121.176" y="-227.079" font-family="Courier,monospace" font-size="14.00" fill="white">Eth0/2</text>
</g>
<!-- SW2 -->
<g id="node5" class="node"><title>SW2</title>
<polygon fill="#006699" stroke="#006699" points="224.941,-471 132.941,-471 132.941,-398 224.941,-398 224.941,-471"/>
<text text-anchor="middle" x="178.941" y="-430.8" font-family="Helvetica,sans-Serif" font-size="14.00" fill="white">SW2</text>
</g>
<!-- R2&#45;&#45;SW2 -->
<g id="edge7" class="edge"><title>R2&#45;&#45;SW2</title>
<path fill="none" stroke="green" stroke-dasharray="5,2" d="M178.941,-347.115C178.941,-363.01 178.941,-381.704 178.941,-397.629"/>
<text text-anchor="middle" x="228.941" y="-368.8" font-family="Courier,monospace" font-size="14.00" fill="white"> &#160;&#160;&#160;&#160;&#160;&#160;&#160;&#160;&#160;&#160;&#160;</text>
<text text-anchor="middle" x="149.941" y="-386.429" font-family="Courier,monospace" font-size="14.00" fill="white">Eth0/11</text>
<text text-anchor="middle" x="153.941" y="-350.915" font-family="Courier,monospace" font-size="14.00" fill="white">Eth0/1</text>
</g>
<!-- R4 -->
<g id="node6" class="node"><title>R4</title>
<polygon fill="#006699" stroke="#006699" points="462.441,-223 385.441,-223 385.441,-150 462.441,-150 462.441,-223"/>
<text text-anchor="middle" x="423.941" y="-182.8" font-family="Helvetica,sans-Serif" font-size="14.00" fill="white">R4</text>
</g>
<!-- R3 -->
<g id="node7" class="node"><title>R3</title>
<polygon fill="#006699" stroke="#006699" points="339.441,-99 262.441,-99 262.441,-26 339.441,-26 339.441,-99"/>
<text text-anchor="middle" x="300.941" y="-58.8" font-family="Helvetica,sans-Serif" font-size="14.00" fill="white">R3</text>
</g>
<!-- R3&#45;&#45;R5 -->
<g id="edge4" class="edge"><title>R3&#45;&#45;R5</title>
<path fill="none" stroke="green" stroke-dasharray="5,2" d="M300.941,-99.1154C300.941,-115.01 300.941,-133.704 300.941,-149.629"/>
<text text-anchor="middle" x="350.941" y="-120.8" font-family="Courier,monospace" font-size="14.00" fill="white"> &#160;&#160;&#160;&#160;&#160;&#160;&#160;&#160;&#160;&#160;&#160;</text>
<text text-anchor="middle" x="275.941" y="-138.429" font-family="Courier,monospace" font-size="14.00" fill="white">Eth0/0</text>
<text text-anchor="middle" x="275.941" y="-102.915" font-family="Courier,monospace" font-size="14.00" fill="white">Eth0/2</text>
</g>
<!-- R3&#45;&#45;SW1 -->
<g id="edge2" class="edge"><title>R3&#45;&#45;SW1</title>
<path fill="none" stroke="green" stroke-dasharray="5,2" d="M262.188,-80.774C242.086,-90.3868 217.503,-103.185 196.941,-117 182.523,-126.688 167.789,-138.618 154.959,-149.793"/>
<text text-anchor="middle" x="246.941" y="-120.8" font-family="Courier,monospace" font-size="14.00" fill="white"> &#160;&#160;&#160;&#160;&#160;&#160;&#160;&#160;&#160;&#160;&#160;</text>
<text text-anchor="middle" x="129.959" y="-138.593" font-family="Courier,monospace" font-size="14.00" fill="white">Eth0/3</text>
<text text-anchor="middle" x="237.188" y="-69.574" font-family="Courier,monospace" font-size="14.00" fill="white">Eth0/0</text>
</g>
<!-- R3&#45;&#45;R4 -->
<g id="edge3" class="edge"><title>R3&#45;&#45;R4</title>
<path fill="none" stroke="green" stroke-dasharray="5,2" d="M339.707,-75.8466C360.777,-84.3628 385.76,-97.6806 401.941,-117 409.721,-126.288 414.763,-138.373 418.026,-149.8"/>
<text text-anchor="middle" x="460.941" y="-120.8" font-family="Courier,monospace" font-size="14.00" fill="white"> &#160;&#160;&#160;&#160;&#160;&#160;&#160;&#160;&#160;&#160;&#160;</text>
<text text-anchor="middle" x="393.026" y="-138.6" font-family="Courier,monospace" font-size="14.00" fill="white">Eth0/0</text>
<text text-anchor="middle" x="364.707" y="-64.6466" font-family="Courier,monospace" font-size="14.00" fill="white">Eth0/1</text>
</g>
<!-- R1 -->
<g id="node8" class="node"><title>R1</title>
<polygon fill="#006699" stroke="#006699" points="93.4411,-99 16.4411,-99 16.4411,-26 93.4411,-26 93.4411,-99"/>
<text text-anchor="middle" x="54.9411" y="-58.8" font-family="Helvetica,sans-Serif" font-size="14.00" fill="white">R1</text>
</g>
<!-- R1&#45;&#45;SW1 -->
<g id="edge1" class="edge"><title>R1&#45;&#45;SW1</title>
<path fill="none" stroke="green" stroke-dasharray="5,2" d="M50,-99.2348C49.9027,-110.172 51.303,-121.958 55.9411,-132 59.4852,-139.673 64.7188,-146.688 70.6553,-152.932"/>
<text text-anchor="middle" x="105.941" y="-120.8" font-family="Courier,monospace" font-size="14.00" fill="white"> &#160;&#160;&#160;&#160;&#160;&#160;&#160;&#160;&#160;&#160;&#160;</text>
<text text-anchor="middle" x="45.6553" y="-141.732" font-family="Courier,monospace" font-size="14.00" fill="white">Eth0/1</text>
<text text-anchor="middle" x="25" y="-103.035" font-family="Courier,monospace" font-size="14.00" fill="white">Eth0/0</text>
</g>
</g>
</svg>
